<mxfile host="app.diagrams.net" modified="2022-05-10T14:33:26.341Z" agent="5.0 (Windows)" etag="34VNvOIWHEE1V6YIGjct" version="17.2.0" type="github">
  <diagram id="C5RBs43oDa-KdzZeNtuy" name="Page-1">
    <mxGraphModel dx="803" dy="2005" grid="1" gridSize="10" guides="1" tooltips="1" connect="1" arrows="1" fold="1" page="1" pageScale="1" pageWidth="827" pageHeight="1169" math="0" shadow="0">
      <root>
        <mxCell id="WIyWlLk6GJQsqaUBKTNV-0" />
        <mxCell id="WIyWlLk6GJQsqaUBKTNV-1" parent="WIyWlLk6GJQsqaUBKTNV-0" />
        <mxCell id="zkfFHV4jXpPFQw0GAbJ--0" value="Context" style="swimlane;fontStyle=2;align=center;verticalAlign=top;childLayout=stackLayout;horizontal=1;startSize=26;horizontalStack=0;resizeParent=1;resizeLast=0;collapsible=1;marginBottom=0;rounded=0;shadow=0;strokeWidth=1;" parent="WIyWlLk6GJQsqaUBKTNV-1" vertex="1">
          <mxGeometry x="220" y="120" width="160" height="100" as="geometry">
            <mxRectangle x="230" y="140" width="160" height="26" as="alternateBounds" />
          </mxGeometry>
        </mxCell>
        <mxCell id="zkfFHV4jXpPFQw0GAbJ--1" value="State state" style="text;align=left;verticalAlign=top;spacingLeft=4;spacingRight=4;overflow=hidden;rotatable=0;points=[[0,0.5],[1,0.5]];portConstraint=eastwest;" parent="zkfFHV4jXpPFQw0GAbJ--0" vertex="1">
          <mxGeometry y="26" width="160" height="26" as="geometry" />
        </mxCell>
        <mxCell id="zkfFHV4jXpPFQw0GAbJ--4" value="" style="line;html=1;strokeWidth=1;align=left;verticalAlign=middle;spacingTop=-1;spacingLeft=3;spacingRight=3;rotatable=0;labelPosition=right;points=[];portConstraint=eastwest;" parent="zkfFHV4jXpPFQw0GAbJ--0" vertex="1">
          <mxGeometry y="52" width="160" height="8" as="geometry" />
        </mxCell>
        <mxCell id="zkfFHV4jXpPFQw0GAbJ--5" value="request()" style="text;align=left;verticalAlign=top;spacingLeft=4;spacingRight=4;overflow=hidden;rotatable=0;points=[[0,0.5],[1,0.5]];portConstraint=eastwest;" parent="zkfFHV4jXpPFQw0GAbJ--0" vertex="1">
          <mxGeometry y="60" width="160" height="26" as="geometry" />
        </mxCell>
        <mxCell id="dfJZMf7-p8pUS339SjBb-0" value="&amp;lt;&amp;lt;interface&amp;gt;&amp;gt;&lt;br&gt;&lt;b&gt;State&lt;/b&gt;" style="swimlane;fontStyle=0;align=center;verticalAlign=top;childLayout=stackLayout;horizontal=1;startSize=55;horizontalStack=0;resizeParent=1;resizeParentMax=0;resizeLast=0;collapsible=0;marginBottom=0;html=1;hachureGap=4;" vertex="1" parent="WIyWlLk6GJQsqaUBKTNV-1">
          <mxGeometry x="540" y="120" width="140" height="143" as="geometry" />
        </mxCell>
        <mxCell id="dfJZMf7-p8pUS339SjBb-1" value="attributes" style="text;html=1;strokeColor=none;fillColor=none;align=center;verticalAlign=middle;spacingLeft=4;spacingRight=4;overflow=hidden;rotatable=0;points=[[0,0.5],[1,0.5]];portConstraint=eastwest;hachureGap=4;" vertex="1" parent="dfJZMf7-p8pUS339SjBb-0">
          <mxGeometry y="55" width="140" height="20" as="geometry" />
        </mxCell>
        <mxCell id="dfJZMf7-p8pUS339SjBb-2" value="attribute1" style="text;html=1;strokeColor=none;fillColor=none;align=left;verticalAlign=middle;spacingLeft=4;spacingRight=4;overflow=hidden;rotatable=0;points=[[0,0.5],[1,0.5]];portConstraint=eastwest;hachureGap=4;" vertex="1" parent="dfJZMf7-p8pUS339SjBb-0">
          <mxGeometry y="75" width="140" height="20" as="geometry" />
        </mxCell>
        <mxCell id="dfJZMf7-p8pUS339SjBb-5" value="" style="line;strokeWidth=1;fillColor=none;align=left;verticalAlign=middle;spacingTop=-1;spacingLeft=3;spacingRight=3;rotatable=0;labelPosition=right;points=[];portConstraint=eastwest;hachureGap=4;" vertex="1" parent="dfJZMf7-p8pUS339SjBb-0">
          <mxGeometry y="95" width="140" height="8" as="geometry" />
        </mxCell>
        <mxCell id="dfJZMf7-p8pUS339SjBb-6" value="operations" style="text;html=1;strokeColor=none;fillColor=none;align=center;verticalAlign=middle;spacingLeft=4;spacingRight=4;overflow=hidden;rotatable=0;points=[[0,0.5],[1,0.5]];portConstraint=eastwest;hachureGap=4;" vertex="1" parent="dfJZMf7-p8pUS339SjBb-0">
          <mxGeometry y="103" width="140" height="20" as="geometry" />
        </mxCell>
        <mxCell id="dfJZMf7-p8pUS339SjBb-7" value="handle()" style="text;html=1;strokeColor=none;fillColor=none;align=left;verticalAlign=middle;spacingLeft=4;spacingRight=4;overflow=hidden;rotatable=0;points=[[0,0.5],[1,0.5]];portConstraint=eastwest;hachureGap=4;" vertex="1" parent="dfJZMf7-p8pUS339SjBb-0">
          <mxGeometry y="123" width="140" height="20" as="geometry" />
        </mxCell>
        <mxCell id="dfJZMf7-p8pUS339SjBb-8" value="" style="html=1;endArrow=diamondThin;endFill=1;edgeStyle=elbowEdgeStyle;elbow=vertical;endSize=10;rounded=0;sourcePerimeterSpacing=8;targetPerimeterSpacing=8;curved=1;entryX=0;entryY=0.5;entryDx=0;entryDy=0;" edge="1" parent="WIyWlLk6GJQsqaUBKTNV-1" target="dfJZMf7-p8pUS339SjBb-2">
          <mxGeometry width="160" relative="1" as="geometry">
            <mxPoint x="380" y="205" as="sourcePoint" />
            <mxPoint x="462" y="189" as="targetPoint" />
            <Array as="points">
              <mxPoint x="420" y="205" />
            </Array>
          </mxGeometry>
        </mxCell>
        <mxCell id="dfJZMf7-p8pUS339SjBb-15" value="State1" style="swimlane;fontStyle=4;align=center;verticalAlign=top;childLayout=stackLayout;horizontal=1;startSize=30;horizontalStack=0;resizeParent=1;resizeParentMax=0;resizeLast=0;collapsible=0;marginBottom=0;html=1;hachureGap=4;" vertex="1" parent="WIyWlLk6GJQsqaUBKTNV-1">
          <mxGeometry x="370" y="340" width="140" height="138" as="geometry" />
        </mxCell>
        <mxCell id="dfJZMf7-p8pUS339SjBb-16" value="slot1" style="html=1;strokeColor=none;fillColor=none;align=left;verticalAlign=middle;spacingLeft=4;spacingRight=4;rotatable=0;points=[[0,0.5],[1,0.5]];resizeWidth=1;hachureGap=4;" vertex="1" parent="dfJZMf7-p8pUS339SjBb-15">
          <mxGeometry y="30" width="140" height="30" as="geometry" />
        </mxCell>
        <mxCell id="dfJZMf7-p8pUS339SjBb-17" value="" style="line;strokeWidth=1;fillColor=none;align=left;verticalAlign=middle;spacingTop=-1;spacingLeft=3;spacingRight=3;rotatable=0;labelPosition=right;points=[];portConstraint=eastwest;hachureGap=4;" vertex="1" parent="dfJZMf7-p8pUS339SjBb-15">
          <mxGeometry y="60" width="140" height="8" as="geometry" />
        </mxCell>
        <mxCell id="dfJZMf7-p8pUS339SjBb-18" value="methods" style="html=1;strokeColor=none;fillColor=none;align=center;verticalAlign=middle;spacingLeft=4;spacingRight=4;rotatable=0;points=[[0,0.5],[1,0.5]];resizeWidth=1;hachureGap=4;" vertex="1" parent="dfJZMf7-p8pUS339SjBb-15">
          <mxGeometry y="68" width="140" height="20" as="geometry" />
        </mxCell>
        <mxCell id="dfJZMf7-p8pUS339SjBb-19" value="" style="swimlane;fontStyle=1;align=center;verticalAlign=top;horizontal=1;startSize=0;collapsible=0;marginBottom=0;html=1;strokeColor=none;fillColor=none;hachureGap=4;direction=south;" vertex="1" parent="dfJZMf7-p8pUS339SjBb-15">
          <mxGeometry y="88" width="140" height="50" as="geometry" />
        </mxCell>
        <mxCell id="dfJZMf7-p8pUS339SjBb-20" value="instance2" style="html=1;align=center;verticalAlign=middle;rotatable=0;hachureGap=4;direction=south;" vertex="1" parent="dfJZMf7-p8pUS339SjBb-19">
          <mxGeometry x="25" y="-25" width="30" height="80" relative="1" as="geometry">
            <mxPoint x="30" y="10" as="offset" />
          </mxGeometry>
        </mxCell>
        <mxCell id="dfJZMf7-p8pUS339SjBb-21" value="handle()" style="text;html=1;align=center;verticalAlign=middle;resizable=0;points=[];autosize=1;strokeColor=none;fillColor=none;hachureGap=4;" vertex="1" parent="dfJZMf7-p8pUS339SjBb-19">
          <mxGeometry y="15" width="60" height="20" as="geometry" />
        </mxCell>
        <mxCell id="dfJZMf7-p8pUS339SjBb-22" value="&lt;div&gt;has a&lt;/div&gt;" style="text;html=1;align=center;verticalAlign=middle;resizable=0;points=[];autosize=1;strokeColor=none;fillColor=none;hachureGap=4;" vertex="1" parent="WIyWlLk6GJQsqaUBKTNV-1">
          <mxGeometry x="430" y="170" width="40" height="20" as="geometry" />
        </mxCell>
        <mxCell id="dfJZMf7-p8pUS339SjBb-23" value="State2" style="swimlane;fontStyle=4;align=center;verticalAlign=top;childLayout=stackLayout;horizontal=1;startSize=30;horizontalStack=0;resizeParent=1;resizeParentMax=0;resizeLast=0;collapsible=0;marginBottom=0;html=1;hachureGap=4;" vertex="1" parent="WIyWlLk6GJQsqaUBKTNV-1">
          <mxGeometry x="640" y="340" width="140" height="138" as="geometry" />
        </mxCell>
        <mxCell id="dfJZMf7-p8pUS339SjBb-24" value="slot1" style="html=1;strokeColor=none;fillColor=none;align=left;verticalAlign=middle;spacingLeft=4;spacingRight=4;rotatable=0;points=[[0,0.5],[1,0.5]];resizeWidth=1;hachureGap=4;" vertex="1" parent="dfJZMf7-p8pUS339SjBb-23">
          <mxGeometry y="30" width="140" height="30" as="geometry" />
        </mxCell>
        <mxCell id="dfJZMf7-p8pUS339SjBb-25" value="" style="line;strokeWidth=1;fillColor=none;align=left;verticalAlign=middle;spacingTop=-1;spacingLeft=3;spacingRight=3;rotatable=0;labelPosition=right;points=[];portConstraint=eastwest;hachureGap=4;" vertex="1" parent="dfJZMf7-p8pUS339SjBb-23">
          <mxGeometry y="60" width="140" height="8" as="geometry" />
        </mxCell>
        <mxCell id="dfJZMf7-p8pUS339SjBb-26" value="methods" style="html=1;strokeColor=none;fillColor=none;align=center;verticalAlign=middle;spacingLeft=4;spacingRight=4;rotatable=0;points=[[0,0.5],[1,0.5]];resizeWidth=1;hachureGap=4;" vertex="1" parent="dfJZMf7-p8pUS339SjBb-23">
          <mxGeometry y="68" width="140" height="20" as="geometry" />
        </mxCell>
        <mxCell id="dfJZMf7-p8pUS339SjBb-27" value="" style="swimlane;fontStyle=1;align=center;verticalAlign=top;horizontal=1;startSize=0;collapsible=0;marginBottom=0;html=1;strokeColor=none;fillColor=none;hachureGap=4;direction=south;" vertex="1" parent="dfJZMf7-p8pUS339SjBb-23">
          <mxGeometry y="88" width="140" height="50" as="geometry" />
        </mxCell>
        <mxCell id="dfJZMf7-p8pUS339SjBb-28" value="instance2" style="html=1;align=center;verticalAlign=middle;rotatable=0;hachureGap=4;direction=south;" vertex="1" parent="dfJZMf7-p8pUS339SjBb-27">
          <mxGeometry x="25" y="-25" width="30" height="80" relative="1" as="geometry">
            <mxPoint x="30" y="10" as="offset" />
          </mxGeometry>
        </mxCell>
        <mxCell id="dfJZMf7-p8pUS339SjBb-29" value="handle()" style="text;html=1;align=center;verticalAlign=middle;resizable=0;points=[];autosize=1;strokeColor=none;fillColor=none;hachureGap=4;" vertex="1" parent="dfJZMf7-p8pUS339SjBb-27">
          <mxGeometry y="15" width="60" height="20" as="geometry" />
        </mxCell>
        <mxCell id="dfJZMf7-p8pUS339SjBb-32" value="" style="endArrow=block;dashed=1;endFill=0;endSize=12;html=1;rounded=0;sourcePerimeterSpacing=8;targetPerimeterSpacing=8;exitX=0.5;exitY=0;exitDx=0;exitDy=0;entryX=0.5;entryY=1;entryDx=0;entryDy=0;" edge="1" parent="WIyWlLk6GJQsqaUBKTNV-1" source="dfJZMf7-p8pUS339SjBb-15" target="dfJZMf7-p8pUS339SjBb-0">
          <mxGeometry width="160" relative="1" as="geometry">
            <mxPoint x="410" y="280" as="sourcePoint" />
            <mxPoint x="570" y="280" as="targetPoint" />
            <Array as="points">
              <mxPoint x="440" y="310" />
              <mxPoint x="610" y="310" />
            </Array>
          </mxGeometry>
        </mxCell>
        <mxCell id="dfJZMf7-p8pUS339SjBb-34" value="" style="endArrow=none;dashed=1;endFill=0;endSize=12;html=1;rounded=0;sourcePerimeterSpacing=8;targetPerimeterSpacing=8;exitX=0.5;exitY=0;exitDx=0;exitDy=0;" edge="1" parent="WIyWlLk6GJQsqaUBKTNV-1" source="dfJZMf7-p8pUS339SjBb-23">
          <mxGeometry width="160" relative="1" as="geometry">
            <mxPoint x="690" y="300" as="sourcePoint" />
            <mxPoint x="610" y="310" as="targetPoint" />
            <Array as="points">
              <mxPoint x="710" y="310" />
              <mxPoint x="610" y="310" />
            </Array>
          </mxGeometry>
        </mxCell>
      </root>
    </mxGraphModel>
  </diagram>
</mxfile>
